<svg xmlns="http://www.w3.org/2000/svg" viewBox="0 0 16 16">
  <rect rx="4" ry="4" width="16" height="16" fill="#0000ff" stroke="white" stroke-width="1"/>
  <path fill="white" d="m4.203,7.296 0,1.368 -0.92,0.677 -0.11,0.41 0.9,1.559 0.41,0.11 1.043,-0.457 1.187,0.683 0.127,1.134 0.3,0.3 1.8,0 0.3,-0.299 0.127,-1.138 1.185,-0.682 1.046,0.458 0.409,-0.11 0.9,-1.559 -0.11,-0.41 -0.92,-0.677 0,-1.366 0.92,-0.677 0.11,-0.41 -0.9,-1.559 -0.409,-0.109 -1.046,0.458 -1.185,-0.682 -0.127,-1.138 -0.3,-0.299 -1.8,0 -0.3,0.3 -0.126,1.135 -1.187,0.682 -1.043,-0.457 -0.41,0.11 -0.899,1.559 0.108,0.409z"/>
  <circle cx="8" cy="8" r="2.7" fill="#0000ff" stroke="white" stroke-width="1"/>
</svg>
